<?xml version="1.0" standalone="no"?>
<!DOCTYPE svg PUBLIC "-//W3C//DTD SVG 20010904//EN"
 "http://www.w3.org/TR/2001/REC-SVG-20010904/DTD/svg10.dtd">
<svg version="1.0" xmlns="http://www.w3.org/2000/svg"
 width="800.000000pt" height="800.000000pt" viewBox="0 0 800.000000 800.000000"
 preserveAspectRatio="xMidYMid meet">

<g transform="translate(0.000000,800.000000) scale(0.100000,-0.100000)"
fill="#000000" stroke="none">
<path d="M2022 6282 c-10 -7 -12 -410 -10 -1983 l3 -1974 1985 0 1985 0 3
1960 c1 1078 0 1970 -3 1983 l-5 22 -1973 0 c-1084 0 -1978 -4 -1985 -8z
m2190 -535 c94 -47 141 -92 183 -174 77 -151 50 -327 -70 -449 -86 -87 -176
-122 -309 -118 -64 2 -89 8 -140 33 -299 147 -302 564 -4 709 82 40 89 41 185
38 71 -2 91 -7 155 -39z m86 -933 l22 -15 0 -727 c0 -400 0 -733 0 -739 0 -10
61 -13 273 -13 199 0 276 -3 285 -12 17 -17 17 -469 0 -486 -9 -9 -219 -12
-884 -12 -741 0 -873 2 -877 14 -9 22 -11 471 -3 484 5 9 98 12 337 12 l329 0
0 495 0 495 -293 0 c-238 0 -297 3 -313 14 -18 14 -19 28 -18 247 1 214 2 233
19 245 15 11 119 14 560 14 474 0 543 -2 563 -16z"/>
</g>
</svg>
