<?xml version="1.0" encoding="UTF-8"?>
<!DOCTYPE svg PUBLIC "-//W3C//DTD SVG 1.1//EN" "http://www.w3.org/Graphics/SVG/1.1/DTD/svg11.dtd">
<svg xmlns="http://www.w3.org/2000/svg" version="1.1" width="700px" height="700px" style="shape-rendering:geometricPrecision; text-rendering:geometricPrecision; image-rendering:optimizeQuality; fill-rule:evenodd; clip-rule:evenodd" xmlns:xlink="http://www.w3.org/1999/xlink">
<g><path style="opacity:0.951" fill="#fe00fe" d="M 348.5,28.5 C 351.93,29.7138 355.264,31.2138 358.5,33C 389.574,51.7322 420.907,70.0655 452.5,88C 453.312,94.0851 453.812,100.252 454,106.5C 458.167,103.667 462.333,100.833 466.5,98C 467.833,97.3333 469.167,97.3333 470.5,98C 504.75,118.708 538.917,139.541 573,160.5C 573.167,176.667 573.333,192.833 573.5,209C 573.696,231.866 573.029,254.7 571.5,277.5C 566.5,280.667 561.5,283.833 556.5,287C 562.342,290.754 568.009,294.754 573.5,299C 572.67,339.429 572.17,379.929 572,420.5C 538.832,440.752 505.499,460.752 472,480.5C 463.58,475.706 455.08,471.04 446.5,466.5C 445.833,474.5 445.167,482.5 444.5,490.5C 412.998,509.419 381.331,528.085 349.5,546.5C 316.204,527.7 283.038,508.7 250,489.5C 249.667,482.167 249.333,474.833 249,467.5C 244.5,470.667 240,473.833 235.5,477C 233.35,478.59 231.017,479.257 228.5,479C 194.833,459.167 161.167,439.333 127.5,419.5C 126.447,418.562 125.78,417.395 125.5,416C 126.158,375.192 126.825,334.358 127.5,293.5C 131.993,291.421 136.326,289.088 140.5,286.5C 136.378,283.266 132.045,280.266 127.5,277.5C 126.333,238.838 126.167,200.171 127,161.5C 161.638,140.346 195.971,118.679 230,96.5C 234.333,99.5 238.667,102.5 243,105.5C 243.19,99.5845 243.69,93.7512 244.5,88C 279.392,68.3925 314.059,48.5591 348.5,28.5 Z M 348.5,50.5 C 376.778,66.9767 405.112,83.4767 433.5,100C 434.647,107.42 434.813,114.92 434,122.5C 406.265,145.404 378.098,167.738 349.5,189.5C 320.524,167.692 291.691,145.692 263,123.5C 262.168,115.479 262.335,107.479 263.5,99.5C 292.131,83.5029 320.464,67.1695 348.5,50.5 Z M 468.5,119.5 C 496.472,136.489 524.472,153.489 552.5,170.5C 553.833,202.5 553.833,234.5 552.5,266.5C 546.833,270 541.167,273.5 535.5,277C 531.401,276.3 527.401,274.967 523.5,273C 495.923,259.628 468.423,246.128 441,232.5C 440.667,232.833 440.333,233.167 440,233.5C 439.333,201.833 439.333,170.167 440,138.5C 449.677,132.304 459.177,125.97 468.5,119.5 Z M 227.5,120.5 C 237.942,125.754 247.775,132.087 257,139.5C 257.329,158.287 257.496,176.787 257.5,195C 256.677,207.758 256.177,220.591 256,233.5C 225.844,248.578 195.844,263.911 166,279.5C 159.636,274.971 153.136,270.637 146.5,266.5C 145.167,235.5 145.167,204.5 146.5,173.5C 173.736,156.058 200.736,138.392 227.5,120.5 Z M 276.5,159.5 C 301.08,177.4 325.413,195.734 349.5,214.5C 372.833,196.167 396.167,177.833 419.5,159.5C 420.833,185.833 420.833,212.167 419.5,238.5C 407.833,245.833 396.167,253.167 384.5,260.5C 383.833,275.167 383.167,289.833 382.5,304.5C 371.828,309.503 361.162,314.503 350.5,319.5C 341.373,314.434 332.373,309.101 323.5,303.5C 322.667,288.845 322.167,274.178 322,259.5C 307,251.833 292,244.167 277,236.5C 276.5,210.835 276.333,185.169 276.5,159.5 Z M 263.5,251.5 C 276.503,258.172 289.503,264.838 302.5,271.5C 303.815,284.866 303.815,298.2 302.5,311.5C 302.919,312.672 303.585,313.672 304.5,314.5C 315.833,321.5 327.167,328.5 338.5,335.5C 339.823,350.063 339.823,364.563 338.5,379C 315.085,392.456 291.919,406.289 269,420.5C 268.667,390.833 268.333,361.167 268,331.5C 242.086,317.46 216.253,303.294 190.5,289C 214.894,276.47 239.228,263.97 263.5,251.5 Z M 434.5,251.5 C 459.754,263.127 484.754,275.294 509.5,288C 482.04,302.231 454.706,316.731 427.5,331.5C 426.667,360.828 426.167,390.161 426,419.5C 403.832,406.084 381.832,392.417 360,378.5C 359.167,364.488 359.334,350.488 360.5,336.5C 374.082,329.973 387.748,323.64 401.5,317.5C 402.428,302.173 403.262,286.839 404,271.5C 414.317,264.934 424.484,258.267 434.5,251.5 Z M 163.5,296.5 C 192.053,312.027 220.553,327.694 249,343.5C 249.667,377.167 249.667,410.833 249,444.5C 242.667,448.833 236.333,453.167 230,457.5C 202.165,440.582 174.165,423.915 146,407.5C 145.518,374.323 145.352,341.323 145.5,308.5C 146.04,307.252 146.707,306.085 147.5,305C 153.053,302.392 158.387,299.559 163.5,296.5 Z M 533.5,296.5 C 540.056,300.364 546.556,304.364 553,308.5C 553.748,342.51 553.414,376.51 552,410.5C 525.833,426 499.667,441.5 473.5,457C 472.167,457.667 470.833,457.667 469.5,457C 461.748,452.374 453.915,447.874 446,443.5C 445.333,410.167 445.333,376.833 446,343.5C 475.467,328.186 504.634,312.52 533.5,296.5 Z M 348.5,395.5 C 374.263,410.747 399.93,426.247 425.5,442C 426.833,454.333 426.833,466.667 425.5,479C 400.293,494.101 374.96,508.935 349.5,523.5C 322.857,508.538 296.19,493.538 269.5,478.5C 268.167,466.5 268.167,454.5 269.5,442.5C 296.062,427.059 322.395,411.392 348.5,395.5 Z"/></g>
<g><path style="opacity:1" fill="#fe05fe" d="M 140.5,566.5 C 152.686,565.37 164.019,567.87 174.5,574C 171.871,579.425 169.371,584.925 167,590.5C 159.859,587.139 152.359,585.973 144.5,587C 140.646,588.608 139.646,591.274 141.5,595C 154.473,600.732 165.973,608.565 176,618.5C 183.678,639.959 176.178,652.793 153.5,657C 140.045,658.642 127.378,656.308 115.5,650C 118.134,643.897 121.134,638.064 124.5,632.5C 133.064,637.353 142.064,638.52 151.5,636C 155.5,633 155.5,630 151.5,627C 140.062,621.536 129.562,614.702 120,606.5C 110.73,584.932 117.564,571.599 140.5,566.5 Z"/></g>
<g><path style="opacity:1" fill="#fe06fe" d="M 266.5,566.5 C 274.958,566.119 283.291,566.953 291.5,569C 295.538,569.899 299.205,571.566 302.5,574C 299.871,579.425 297.371,584.925 295,590.5C 286.845,587.004 278.345,585.837 269.5,587C 262,589.167 257.167,594 255,601.5C 252.089,612.128 253.422,622.128 259,631.5C 265.48,636.95 272.98,638.95 281.5,637.5C 281.5,632.5 281.5,627.5 281.5,622.5C 276.5,622.5 271.5,622.5 266.5,622.5C 265.506,616.544 264.839,610.544 264.5,604.5C 277.5,604.5 290.5,604.5 303.5,604.5C 303.833,620.181 303.499,635.848 302.5,651.5C 282.875,659.983 263.541,659.483 244.5,650C 231.456,638.028 226.29,623.195 229,605.5C 231.915,583.153 244.415,570.153 266.5,566.5 Z"/></g>
<g><path style="opacity:0.998" fill="#fe05fe" d="M 532.5,566.5 C 560.1,563.025 576.933,574.691 583,601.5C 586.807,622.166 580.641,639 564.5,652C 547.954,659.584 531.621,659.251 515.5,651C 499.019,634.91 494.186,615.744 501,593.5C 506.525,578.461 517.025,569.461 532.5,566.5 Z M 537.5,586.5 C 547.252,585.29 553.752,589.29 557,598.5C 560.26,609.836 559.26,620.836 554,631.5C 545.333,639.5 536.667,639.5 528,631.5C 523.243,621.244 522.243,610.577 525,599.5C 527.044,592.959 531.211,588.625 537.5,586.5 Z"/></g>
<g><path style="opacity:1" fill="#fe03fe" d="M 191.5,568.5 C 199.5,568.5 207.5,568.5 215.5,568.5C 215.5,597.5 215.5,626.5 215.5,655.5C 207.5,655.5 199.5,655.5 191.5,655.5C 191.5,626.5 191.5,597.5 191.5,568.5 Z"/></g>
<g><path style="opacity:0.999" fill="#fe05fe" d="M 318.5,568.5 C 334.837,568.333 351.17,568.5 367.5,569C 380.705,571.017 389.872,578.184 395,590.5C 401.283,606.954 400.283,622.954 392,638.5C 385.717,647.394 377.217,652.894 366.5,655C 350.503,655.5 334.503,655.667 318.5,655.5C 318.5,626.5 318.5,597.5 318.5,568.5 Z M 343.5,587.5 C 363.204,583.548 373.538,591.548 374.5,611.5C 373.458,631.199 363.125,639.533 343.5,636.5C 343.5,620.167 343.5,603.833 343.5,587.5 Z"/></g>
<g><path style="opacity:0.999" fill="#fe05fe" d="M 435.5,568.5 C 443.86,568.169 452.193,568.502 460.5,569.5C 471.167,597.167 481.833,624.833 492.5,652.5C 492,652.833 491.5,653.167 491,653.5C 483.534,655.131 476.034,655.465 468.5,654.5C 466.397,649.356 464.397,644.189 462.5,639C 452.833,638.333 443.167,638.333 433.5,639C 431.5,644.333 429.5,649.667 427.5,655C 419.479,655.832 411.479,655.665 403.5,654.5C 414.37,625.887 425.037,597.22 435.5,568.5 Z M 447.5,598.5 C 450.113,605.078 452.779,611.745 455.5,618.5C 450.544,619.494 445.544,619.827 440.5,619.5C 442.633,612.433 444.967,605.433 447.5,598.5 Z"/></g>
</svg>
